<?xml version="1.0" standalone="no"?><!-- Generator: Gravit.io --><svg xmlns="http://www.w3.org/2000/svg" xmlns:xlink="http://www.w3.org/1999/xlink" style="isolation:isolate" viewBox="0 0 560 315" width="560" height="315"><defs><clipPath id="_clipPath_mbS7h1T0hG3uMONAO8C6SaNGrkM2aLmG"><rect width="560" height="315"/></clipPath></defs><g clip-path="url(#_clipPath_mbS7h1T0hG3uMONAO8C6SaNGrkM2aLmG)"><rect x="0" y="0" width="560" height="315" transform="matrix(1,0,0,1,0,0)" fill="rgb(232,232,232)"/><line x1="306" y1="129.375" x2="420" y2="129.375"/><line x1="297" y1="129.375" x2="396" y2="129.375"/><path d="M 299.839 186.5 L 519.161 186.5 C 524.039 186.5 528 189.301 528 192.75 L 528 192.75 C 528 196.199 524.039 199 519.161 199 L 299.839 199 C 294.961 199 291 196.199 291 192.75 L 291 192.75 C 291 189.301 294.961 186.5 299.839 186.5 Z" style="stroke:none;fill:#B9B9B9;stroke-miterlimit:10;"/><path d="M 298.591 104 L 520.409 104 C 524.599 104 528 106.689 528 110 L 528 110 C 528 113.311 524.599 116 520.409 116 L 298.591 116 C 294.401 116 291 113.311 291 110 L 291 110 C 291 106.689 294.401 104 298.591 104 Z" style="stroke:none;fill:#B9B9B9;stroke-miterlimit:10;"/><path d="M 299.839 145 L 519.161 145 C 524.039 145 528 147.801 528 151.25 L 528 151.25 C 528 154.699 524.039 157.5 519.161 157.5 L 299.839 157.5 C 294.961 157.5 291 154.699 291 151.25 L 291 151.25 C 291 147.801 294.961 145 299.839 145 Z" style="stroke:none;fill:#B9B9B9;stroke-miterlimit:10;"/><rect x="0" y="1" width="560" height="43" transform="matrix(1,0,0,1,0,0)" fill="rgb(185,185,185)"/><circle cx="0" cy="0" r="1" fill="rgb(235,235,235)"/><ellipse vector-effect="non-scaling-stroke" cx="40" cy="22.5" rx="13" ry="13.999999999999998" fill="rgb(251,111,111)"/><ellipse vector-effect="non-scaling-stroke" cx="80.50000000000001" cy="22.500000000000007" rx="13.5" ry="14" fill="rgb(181,242,242)"/><ellipse vector-effect="non-scaling-stroke" cx="126.50000000000003" cy="22.500000000000007" rx="12.5" ry="14" fill="rgb(240,240,131)"/><path d="M 49.57 105.75 L 212.43 105.75 C 217.712 105.75 222 110.038 222 115.32 L 222 270.18 C 222 275.462 217.712 279.75 212.43 279.75 L 49.57 279.75 C 44.288 279.75 40 275.462 40 270.18 L 40 115.32 C 40 110.038 44.288 105.75 49.57 105.75 Z" style="stroke:none;fill:#FFFFFF;stroke-miterlimit:10;"/><line x1="44.5" y1="151.25" x2="71.5" y2="164.75"/><line x1="191" y1="157.5" x2="167" y2="174"/><g><path d=" M 115.267 238.625 L 120.733 238.625 L 128.933 230.431 L 107.067 230.431" fill="rgb(38,50,56)"/><path d=" M 123.467 233.162 L 112.533 233.162 C 106.52 233.162 101.6 228.246 101.6 222.237 L 101.6 211.313 L 134.4 211.313 L 134.4 222.237 C 134.4 228.246 129.48 233.162 123.467 233.162 Z " fill="rgb(159,168,218)"/><path d=" M 134.4 222.238 L 102.688 226.613 C 103.607 228.66 105.136 230.373 107.067 231.518 L 132.755 227.979 C 133.856 226.334 134.4 224.422 134.4 222.238 Z  M 101.6 215.956 L 101.6 221.418 L 134.4 216.775 L 134.4 211.313 L 101.6 215.956 Z " fill="rgb(92,107,192)"/><path d=" M 101.6 211.313 C 93.4 206.129 77 189.462 77 170.344 C 77 147.674 95.313 129.375 118 129.375 C 140.687 129.375 159 147.674 159 170.344 C 159 189.462 142.6 206.129 134.4 211.313 L 101.6 211.313 Z " fill="rgb(255,193,7)"/><path d=" M 136.045 165.427 L 127.845 159.965 C 127.023 159.419 125.656 159.419 124.833 159.965 L 118 164.335 L 111.445 159.965 C 110.623 159.419 109.256 159.419 108.433 159.965 L 100.233 165.427 C 99.687 165.968 99.145 166.525 99.145 167.334 C 99.145 168.156 99.145 168.978 99.689 169.522 L 110.076 182.359 L 110.076 211.313 L 115.543 211.313 L 115.543 181.269 C 115.543 180.722 115.267 180.182 114.988 179.625 L 105.979 168.435 L 110.079 165.703 L 116.633 170.065 C 117.453 170.622 118.82 170.622 119.645 170.065 L 126.2 165.703 L 130.3 168.435 L 121.28 179.625 C 121.012 180.182 120.733 180.725 120.733 181.269 L 120.733 211.313 L 126.2 211.313 L 126.2 182.356 L 136.587 169.522 C 137.133 168.978 137.412 168.156 137.133 167.337 C 136.855 166.525 136.587 165.703 136.045 165.425 L 136.045 165.427 Z " fill="rgb(255,241,118)"/></g><line x1="59.5" y1="133.062" x2="76" y2="140.062" vector-effect="non-scaling-stroke" stroke-width="1" stroke="rgb(0,0,0)" stroke-linejoin="miter" stroke-linecap="square" stroke-miterlimit="3"/><line x1="88" y1="110.313" x2="96" y2="123.687" vector-effect="non-scaling-stroke" stroke-width="1" stroke="rgb(0,0,0)" stroke-linejoin="miter" stroke-linecap="square" stroke-miterlimit="3"/><line x1="147" y1="113" x2="138" y2="125" vector-effect="non-scaling-stroke" stroke-width="1" stroke="rgb(0,0,0)" stroke-linejoin="miter" stroke-linecap="square" stroke-miterlimit="3"/><line x1="183.5" y1="132.375" x2="167.5" y2="143.75" vector-effect="non-scaling-stroke" stroke-width="1" stroke="rgb(0,0,0)" stroke-linejoin="miter" stroke-linecap="square" stroke-miterlimit="3"/></g></svg>